<svg width="24" height="24" viewBox="0 0 24 24" fill="none" xmlns="http://www.w3.org/2000/svg">
<path d="M7.9931 12.2575C7.78075 12.2568 7.66327 12.3014 7.48235 12.4166C7.38445 12.4789 7.31728 12.5505 7.24736 12.6256C7.14459 12.7362 7.07116 12.9054 7.03404 13.0522C6.99713 13.1982 6.98675 13.4215 7.02884 13.5668C7.09658 13.8007 7.21749 14.0124 7.4016 14.145C7.67451 14.3416 8.13126 14.3881 8.45963 14.2861C8.73308 14.2012 8.92829 13.95 8.99553 13.6638L9.00658 13.6173C9.04798 13.4444 9.09066 13.2661 9.03541 13.0944C8.94218 12.8048 8.77129 12.6192 8.5238 12.4514C8.33846 12.3258 8.21288 12.2582 7.9931 12.2575Z" fill="white"/>
<path d="M7.9931 16.3805C7.78075 16.3798 7.66327 16.4244 7.48235 16.5396C7.38445 16.6019 7.31728 16.6735 7.24736 16.7487C7.14459 16.8592 7.07116 17.0285 7.03404 17.1753C6.99713 17.3212 6.98675 17.5445 7.02884 17.6898C7.09658 17.9237 7.21749 18.1354 7.4016 18.2681C7.67451 18.4647 8.13126 18.5112 8.45963 18.4092C8.73308 18.3242 8.92829 18.0731 8.99553 17.7868L9.00658 17.7404C9.04798 17.5674 9.09066 17.3891 9.03541 17.2175C8.94218 16.9278 8.77129 16.7422 8.5238 16.5745C8.33846 16.4488 8.21288 16.3812 7.9931 16.3805Z" fill="white"/>
<path d="M11.5239 12.5136C11.7048 12.3984 11.8223 12.3538 12.0347 12.3545C12.2544 12.3552 12.38 12.4228 12.5654 12.5485C12.8129 12.7162 12.9837 12.9018 13.077 13.1915C13.1322 13.3631 13.0895 13.5414 13.0481 13.7144L13.0371 13.7608C12.9699 14.0471 12.7746 14.2982 12.5012 14.3832C12.1728 14.4852 11.7161 14.4387 11.4432 14.2421C11.2591 14.1094 11.1381 13.8977 11.0704 13.6638C11.0283 13.5185 11.0387 13.2952 11.0756 13.1493C11.1127 13.0025 11.1862 12.8332 11.2889 12.7227C11.3588 12.6475 11.426 12.5759 11.5239 12.5136Z" fill="white"/>
<path d="M12.0347 16.4775C11.8223 16.4769 11.7048 16.5215 11.5239 16.6367C11.426 16.699 11.3588 16.7705 11.2889 16.8457C11.1862 16.9563 11.1127 17.1255 11.0756 17.2723C11.0387 17.4183 11.0283 17.6416 11.0704 17.7869C11.1381 18.0208 11.2591 18.2325 11.4432 18.3651C11.7161 18.5617 12.1728 18.6082 12.5012 18.5062C12.7746 18.4213 12.9699 18.1701 13.0371 17.8839L13.0481 17.8374C13.0895 17.6645 13.1322 17.4862 13.077 17.3145C12.9837 17.0249 12.8129 16.8393 12.5654 16.6715C12.38 16.5459 12.2544 16.4783 12.0347 16.4775Z" fill="white"/>
<path d="M15.5656 12.4166C15.7465 12.3014 15.864 12.2568 16.0764 12.2575C16.2961 12.2582 16.4217 12.3258 16.607 12.4514C16.8545 12.6192 17.0254 12.8048 17.1187 13.0944C17.1739 13.2661 17.1312 13.4444 17.0898 13.6173L17.0788 13.6638C17.0115 13.95 16.8163 14.2012 16.5429 14.2861C16.2145 14.3881 15.7578 14.3416 15.4848 14.145C15.3007 14.0124 15.1798 13.8007 15.1121 13.5668C15.07 13.4215 15.0804 13.1982 15.1173 13.0522C15.1544 12.9054 15.2278 12.7362 15.3306 12.6256C15.4005 12.5505 15.4677 12.4789 15.5656 12.4166Z" fill="white"/>
<path d="M16.0764 16.3805C15.864 16.3798 15.7465 16.4244 15.5656 16.5396C15.4677 16.6019 15.4005 16.6735 15.3306 16.7487C15.2278 16.8592 15.1544 17.0285 15.1173 17.1753C15.0804 17.3212 15.07 17.5445 15.1121 17.6898C15.1798 17.9237 15.3007 18.1354 15.4848 18.2681C15.7578 18.4647 16.2145 18.5112 16.5429 18.4092C16.8163 18.3242 17.0115 18.0731 17.0788 17.7868L17.0898 17.7404C17.1312 17.5674 17.1739 17.3891 17.1187 17.2175C17.0254 16.9278 16.8545 16.7422 16.607 16.5745C16.4217 16.4488 16.2961 16.3812 16.0764 16.3805Z" fill="white"/>
<path fill-rule="evenodd" clip-rule="evenodd" d="M7.29371 2.9038C7.27072 2.62862 7.029 2.42418 6.75382 2.44717C6.47863 2.47016 6.27419 2.71188 6.29718 2.98706L6.40078 4.22695C5.67619 4.22876 5.08865 4.23395 4.66002 4.23914C4.39441 4.24236 4.18981 4.24558 4.05141 4.248L3.89412 4.25093L3.84101 4.25203C3.56931 4.25814 3.35125 4.48016 3.35125 4.75193C3.35125 5.42049 3.29757 6.17773 3.24198 6.95833L3.24118 6.96948C3.18649 7.7375 3.13018 8.52814 3.13018 9.23576L3.13013 15.037C3.13013 16.0681 3.18552 17.2368 3.24036 18.394L3.24125 18.4127C3.29667 19.5821 3.35125 20.7393 3.35125 21.7608C3.35125 22.0369 3.57511 22.2608 3.85125 22.2608C4.79093 22.2608 5.75101 22.2558 6.72562 22.2507C8.71851 22.2404 10.7721 22.2297 12.8363 22.2607C14.1062 22.2798 15.3988 22.2014 16.649 22.1198L16.908 22.1029C18.0729 22.0265 19.1953 21.9529 20.2545 21.9529C20.5307 21.9529 20.7545 21.729 20.7545 21.4529C20.7545 20.3784 20.7831 19.4079 20.812 18.4286C20.8408 17.4505 20.8698 16.4634 20.8698 15.3677C20.8698 14.6221 20.8323 13.4429 20.7954 12.2795C20.7581 11.1084 20.7214 9.95294 20.7214 9.23576C20.7214 7.45719 20.6809 6.55951 20.5932 4.80669C20.5803 4.54908 20.3736 4.34355 20.1159 4.33215L20.0357 4.32868L19.8166 4.31961C19.631 4.3121 19.3728 4.3021 19.0826 4.29209C18.6592 4.27749 18.1638 4.26275 17.7248 4.25589L17.6034 3.02916C17.5762 2.75436 17.3314 2.55364 17.0566 2.58084C16.7818 2.60804 16.5811 2.85286 16.6083 3.12766L16.7181 4.23712L16.3869 4.22546C16.1352 4.21652 15.8411 4.20607 15.5132 4.19538C14.6292 4.16655 13.5213 4.13689 12.4031 4.134C11.0497 4.1305 9.68058 4.15367 8.65074 4.17766C8.13571 4.18966 7.70504 4.20188 7.40294 4.21111L7.29371 2.9038ZM6.9622 5.22596L7.08491 5.22175C7.16527 5.21907 7.28323 5.21523 7.43326 5.21065C7.73335 5.20148 8.16167 5.18933 8.67403 5.17739C9.69921 5.1535 11.0589 5.13053 12.4005 5.13399C13.5041 5.13684 14.6005 5.16615 15.4806 5.19485C15.7842 5.20475 16.0649 5.21471 16.312 5.22347C16.7715 5.23976 17.1145 5.25193 17.2715 5.25193C17.7724 5.25193 18.4705 5.27158 19.0481 5.2915C19.2604 5.29882 19.4555 5.30614 19.6171 5.31246C19.6808 6.6103 19.7138 7.44322 19.7202 8.73634L19.3032 8.73679C18.7335 8.73737 17.9422 8.73806 17.0556 8.73852C15.282 8.73943 13.1277 8.73943 11.6026 8.73576C10.3291 8.73269 9.36247 8.77307 8.48172 8.80986C7.10527 8.86736 5.93851 8.91609 4.1376 8.77656C4.15419 8.22872 4.19624 7.6361 4.23945 7.02936L4.24025 7.01821C4.28258 6.42385 4.32587 5.81595 4.34328 5.24346C4.43928 5.24205 4.54907 5.24056 4.67213 5.23907C5.19964 5.23268 5.97086 5.22628 6.94425 5.22628C6.95023 5.22628 6.95622 5.22617 6.9622 5.22596ZM19.3042 9.73679L19.7257 9.73633C19.7366 10.4456 19.766 11.3715 19.7952 12.2916L19.7959 12.3113C19.8331 13.4824 19.8698 14.642 19.8698 15.3677C19.8698 16.4467 19.8412 17.4195 19.8124 18.3989L19.8122 18.4045C19.7879 19.2306 19.7634 20.0616 19.7565 20.9578C18.8132 20.9757 17.8327 21.04 16.8504 21.1045L16.5839 21.1219C15.3312 21.2037 14.076 21.2792 12.8513 21.2608C10.7775 21.2297 8.70549 21.2404 6.70678 21.2508C5.90714 21.2549 5.119 21.259 4.34738 21.2604C4.3338 20.3426 4.28667 19.3473 4.24013 18.3654L4.23998 18.3622C4.1846 17.1937 4.13013 16.0443 4.13013 15.037L4.13017 9.77876C5.95049 9.91526 7.19627 9.86444 8.60347 9.80702C9.48035 9.77125 10.4199 9.73292 11.6002 9.73576C13.1269 9.73944 15.2825 9.73943 17.0561 9.73852C17.9429 9.73806 18.7344 9.73737 19.3042 9.73679Z" fill="white"/>
</svg>
