<svg width="177" height="239" viewBox="0 0 177 239" fill="none" xmlns="http://www.w3.org/2000/svg">
<path d="M3.89176 82.6929C8.58937 80.9193 12.5839 79.6372 14.3622 74.6357C15.3594 71.8311 15.8595 68.9296 16.503 66.0336C16.7468 64.9368 18.856 57.6656 18.566 59.2609C16.8469 68.7159 16.9405 77.5283 23.5092 85.3397C25.0284 87.1463 27.0108 88.2194 29.1142 89.1542C30.4182 89.7338 28.0701 87.6751 26.9345 87.6751C17.4265 87.6751 10.898 101.753 10.898 109.706C10.898 112.608 12.8455 107.493 12.9999 107.059C14.6809 102.331 13.8259 97.9077 12.6496 93.2023C11.6562 89.2288 7.83862 79.1898 3.19114 79.1898C-1.29599 79.1898 4.3808 80.5911 6.03256 80.5911C9.09809 80.5911 11.5024 79.6584 13.7005 77.3604C14.6024 76.4175 18.9905 71.6758 17.2036 70.7823" stroke="#F291A3" stroke-width="3" stroke-linecap="round"/>
<path d="M74.272 90.3954C79.8827 89.8511 85.7194 89.7525 90.0365 85.6183C93.3503 82.445 96.1474 78.1382 98.6353 74.3124C104.169 65.8029 107.334 55.8933 109.225 45.9682C110.845 37.46 117.012 12.7302 112.648 20.2115C108.125 27.9652 109.842 41.2054 111.693 49.3918C114.379 61.2737 118.625 71.8655 128.89 79.0896C132.537 81.656 137.724 82.9652 141.868 84.6231C145.527 86.0864 149.019 86.8035 152.935 85.3795C158.062 83.5151 147.183 86.0391 145.889 86.5339C134.81 90.77 128.258 107.134 123.158 116.749C117.936 126.595 115.294 138.372 114.559 149.393C114.026 157.396 112.25 165.245 112.25 173.279C112.25 177.777 113.282 182.407 112.608 186.854C112.015 190.769 112.25 190.573 112.25 186.893C112.25 176.35 114.418 166.089 112.887 155.563C111.856 148.476 109.972 142.387 107.951 135.818C105.897 129.143 106.025 121.984 104.049 115.316C102.486 110.039 99.5553 106.714 96.605 102.219C93.0177 96.7524 89.897 89.7677 82.7514 89.0021C76.2802 88.3088 69.856 88.3957 63.5234 86.8126" stroke="#F291A3" stroke-width="3" stroke-linecap="round"/>
<path d="M36.2939 162.769C53.0882 152.852 59.2242 131.714 59.2242 112.927C59.2242 110.25 58.5076 111.786 58.5076 113.405C58.5076 119.163 58.4395 124.925 58.5076 130.682C58.5621 135.289 58.791 139.926 60.1 144.377C61.5384 149.268 64.6831 153.241 66.987 157.713C70.0236 163.608 71.1057 169.942 77.855 172.642C78.3777 172.851 83.3834 175.128 83.5477 174.552C83.9358 173.194 81.892 173.377 81.0795 173.557C76.7759 174.514 71.6877 180.598 69.4154 183.868C63.5473 192.311 60.7598 201.701 59.5824 211.774C58.7468 218.924 56.9308 225.834 56.1986 232.993C55.9105 235.81 54.7128 239.545 56.4375 234.864C62.551 218.27 60.8512 201.562 56.7162 184.704C54.8796 177.216 52.5409 168.824 49.033 161.973C47.4112 158.805 40.801 151.096 37.0105 154.887" stroke="#F291A3" stroke-width="3" stroke-linecap="round"/>
<path d="M143.779 35.936C148.353 28.8787 151.802 22.9099 152.936 14.5982C153.338 11.6506 153.095 8.57242 153.095 5.60123C153.095 -1.31116 152.13 20.0717 155.284 26.2225C158.706 32.8938 167.59 35.2194 174.592 35.2194C175.403 35.2194 172.918 35.3922 172.402 35.6175C167.652 37.6959 164.358 42.3324 161.853 46.6845C159.351 51.0328 158.646 55.4419 157.952 60.2994C157.658 62.3563 156.141 64.5301 157.354 66.3504C158.032 67.3662 157.394 63.9088 157.394 62.6879C157.394 57.0689 158.262 50.5972 155.921 45.331C154.672 42.5202 152.596 37.738 150.229 35.7768C147.953 33.891 145.29 32.9396 143.063 30.9598C141.347 29.4346 134.039 29.4869 136.335 29.4869C143.779 29.4869 150.093 24.2354 152.219 17.3052C153.378 13.5264 154.528 9.10502 154.528 5.12352C154.528 4.91293 154.577 0.523687 153.254 1.69991C152.464 2.40233 152.987 7.1242 152.936 7.91018C152.391 16.3102 153.692 23.6089 158.111 30.8404C160.39 34.5699 167.804 37.1875 172.402 36.6128C172.957 36.5434 175.212 35.936 173.517 35.936C170.614 35.936 167.407 41.3091 165.993 43.2609C162.049 48.7048 152.178 64.1993 159.703 70.8886C160.281 71.4018 160.977 64.7267 160.977 64.2803C160.977 57.804 159.851 51.5859 157.792 45.4106C154.743 36.2637 149.286 33.3515 141.391 29.1286C138.775 27.7294 135.849 24.7619 135.181 28.7703" stroke="#F291A3" stroke-width="3" stroke-linecap="round"/>
</svg>
